<?xml version="1.0" encoding="UTF-8" standalone="no"?>
<!DOCTYPE svg PUBLIC "-//W3C//DTD SVG 1.1//EN"
 "http://www.w3.org/Graphics/SVG/1.1/DTD/svg11.dtd">
<!-- Generated by graphviz version 2.28.0 (20120118.1605)
 -->
<!-- Title: LayoutActors Pages: 1 -->
<svg width="160pt" height="244pt"
 viewBox="0.00 0.00 160.00 244.00" xmlns="http://www.w3.org/2000/svg" xmlns:xlink="http://www.w3.org/1999/xlink">
<g id="graph1" class="graph" transform="scale(1 1) rotate(0) translate(4 240)">
<title>LayoutActors</title>
<g id="graph2" class="cluster"><title>cluster_0</title>
<!-- <polygon fill="lightgrey" stroke="lightgrey" points="8,-80 8,-228 164,-228 164,-80 8,-80"/> -->
<text text-anchor="middle" x="86" y="-214" font-family="Verdana" font-size="10.00" color="#ffffff">Application</text>
</g>
<!-- contA -->
<g id="node2" class="node"><title>contA</title>
<ellipse fill="white" stroke="white" cx="120" cy="-180" rx="35.3827" ry="18"/>
<text text-anchor="middle" x="120" y="-177.834" font-family="Verdana" font-size="8.00">MenuBar A</text>
</g>
<!-- buttonB -->
<g id="node3" class="node"><title>buttonB</title>
<ellipse fill="white" stroke="white" cx="46" cy="-106" rx="30.2267" ry="18"/>
<text text-anchor="middle" x="46" y="-103.834" font-family="Verdana" font-size="8.00">Button B</text>
</g>
<!-- contA&#45;&gt;buttonB -->
<g id="edge3" class="edge"><title>contA&#45;&gt;buttonB</title>
<path fill="none" stroke="white" d="M98.9533,-165.302C94.1801,-161.837 89.2649,-157.967 85,-154 77.4739,-147 70.0554,-138.562 63.7423,-130.779"/>
<polygon fill="white" stroke="white" points="66.3091,-128.381 57.3728,-122.69 60.8093,-132.712 66.3091,-128.381"/>
</g>
<!-- buttonC -->
<g id="node4" class="node"><title>buttonC</title>
<ellipse fill="white" stroke="white" cx="125" cy="-106" rx="30.3172" ry="18"/>
<text text-anchor="middle" x="125" y="-103.834" font-family="Verdana" font-size="8.00">Button C</text>
</g>
<!-- contA&#45;&gt;buttonC -->
<g id="edge5" class="edge"><title>contA&#45;&gt;buttonC</title>
<path fill="none" stroke="white" d="M121.185,-161.937C121.75,-153.807 122.439,-143.876 123.076,-134.705"/>
<polygon fill="white" stroke="white" points="126.588,-134.659 123.789,-124.441 119.604,-134.174 126.588,-134.659"/>
</g>
</g>
</svg>
