<?xml version="1.0" encoding="UTF-8" standalone="no"?>
<!DOCTYPE svg PUBLIC "-//W3C//DTD SVG 1.1//EN"
 "http://www.w3.org/Graphics/SVG/1.1/DTD/svg11.dtd">
<!-- Generated by graphviz version 2.28.0 (20120118.1605)
 -->
<!-- Title: LayoutActors Pages: 1 -->
<svg width="455pt" height="244pt"
 viewBox="0.00 0.00 455.00 244.00" xmlns="http://www.w3.org/2000/svg" xmlns:xlink="http://www.w3.org/1999/xlink">
<g id="graph1" class="graph" transform="scale(1 1) rotate(0) translate(4 240)">
<title>LayoutActors</title>
<!-- layoutA -->
<g id="node8" class="node"><title>layoutA</title>
<ellipse fill="lightgrey" stroke="white" cx="250" cy="-106" rx="30.3555" ry="18"/>
<text text-anchor="middle" x="250" y="-103.834" font-family="Verdana" font-size="8.00">Layout A</text>
</g>
<!-- contA&#45;&gt;layoutA -->
<g id="edge14" class="edge"><title>contA&#45;&gt;layoutA</title>
<path fill="none" stroke="white" stroke-dasharray="5,2" d="M144.028,-166.727C151.72,-162.733 160.25,-158.237 168,-154 189.02,-142.508 212.735,-128.837 229.235,-119.21"/>
</g>
<!-- layoutB -->
<g id="node9" class="node"><title>layoutB</title>
<ellipse fill="lightgrey" stroke="white" cx="211" cy="-34" rx="30.3695" ry="18"/>
<text text-anchor="middle" x="211" y="-31.8336" font-family="Verdana" font-size="8.00">Layout B</text>
</g>
<!-- buttonB&#45;&gt;layoutB -->
<g id="edge16" class="edge"><title>buttonB&#45;&gt;layoutB</title>
<path fill="none" stroke="white" stroke-dasharray="5,2" d="M64.9347,-91.6405C71.1536,-87.5886 78.2143,-83.3327 85,-80 117.942,-63.821 158.217,-50.4715 184.225,-42.6218"/>
</g>
<!-- layoutC -->
<g id="node10" class="node"><title>layoutC</title>
<ellipse fill="lightgrey" stroke="white" cx="290" cy="-34" rx="30.4601" ry="18"/>
<text text-anchor="middle" x="290" y="-31.8336" font-family="Verdana" font-size="8.00">Layout C</text>
</g>
<!-- buttonC&#45;&gt;layoutC -->
<g id="edge18" class="edge"><title>buttonC&#45;&gt;layoutC</title>
<path fill="none" stroke="white" stroke-dasharray="5,2" d="M145.121,-92.1984C152.194,-87.9977 160.3,-83.5112 168,-80 203.039,-64.0218 214.033,-65.7629 250,-52 255.356,-49.9506 261.057,-47.6197 266.427,-45.3551"/>
</g>
<!-- layoutA&#45;&gt;layoutB -->
<g id="edge8" class="edge"><title>layoutA&#45;&gt;layoutB</title>
<path fill="none" stroke="white" d="M240.955,-88.7646C236.297,-80.4043 230.509,-70.0159 225.266,-60.6059"/>
<polygon fill="white" stroke="white" points="228.192,-58.6656 220.267,-51.6334 222.077,-62.0726 228.192,-58.6656"/>
</g>
<!-- layoutA&#45;&gt;layoutC -->
<g id="edge10" class="edge"><title>layoutA&#45;&gt;layoutC</title>
<path fill="none" stroke="white" d="M259.277,-88.7646C264.174,-80.1948 270.289,-69.494 275.771,-59.9004"/>
<polygon fill="white" stroke="white" points="278.85,-61.5663 280.773,-51.1473 272.773,-58.0932 278.85,-61.5663"/>
</g>
<!-- algo -->
<g id="node11" class="node"><title>algo</title>
<polygon fill="lightblue" stroke="lightblue" points="431.05,-52 338.95,-52 338.95,-16 431.05,-16 431.05,-52"/>
<text text-anchor="middle" x="385" y="-31.8336" font-family="Verdana" font-size="8.00">float&#45;left&#45;algorithm</text>
</g>
<!-- layoutA&#45;&gt;algo -->
<g id="edge12" class="edge"><title>layoutA&#45;&gt;algo</title>
<path fill="none" stroke="white" d="M271.991,-93.5975C293.732,-82.3239 327.266,-64.9363 352.163,-52.0264"/>
</g>
</g>
</svg>
