<?xml version="1.0" encoding="UTF-8" standalone="no"?>
<!DOCTYPE svg PUBLIC "-//W3C//DTD SVG 1.1//EN"
 "http://www.w3.org/Graphics/SVG/1.1/DTD/svg11.dtd">
<!-- Generated by graphviz version 2.28.0 (20120118.1605)
 -->
<!-- Title: MVC Pages: 1 -->
<svg width="557pt" height="500pt"
 viewBox="0.00 0.00 556.65 500.26" xmlns="http://www.w3.org/2000/svg" xmlns:xlink="http://www.w3.org/1999/xlink">
<g id="graph1" class="graph" transform="scale(1 1) rotate(0) translate(4 496.262)">
<title>MVC</title>

<!-- view -->
<g id="node10" class="node"><title>view</title>
<ellipse fill="#ff6a6a" stroke="#ff6a6a" cx="234.236" cy="-173.683" rx="36" ry="36"/>
<text text-anchor="middle" x="234.236" y="-171.516" font-family="Verdana" font-size="8.00">view</text>
</g>
<!-- facade&#45;&gt;view -->
<g id="edge2" class="edge"><title>facade&#45;&gt;view</title>
<path fill="none" stroke="black" d="M290.373,-204.095C283.065,-200.136 274.331,-195.404 265.955,-190.866"/>
</g>
<!-- mediator1 -->
<g id="node11" class="node"><title>mediator1</title>
<ellipse fill="#ff6a6a" stroke="#ff6a6a" cx="115.2" cy="-278.721" rx="18" ry="18"/>
<text text-anchor="middle" x="115.2" y="-276.555" font-family="Verdana" font-size="8.00">mediator1</text>
</g>
<!-- view&#45;&gt;mediator1 -->
<g id="edge12" class="edge"><title>view&#45;&gt;mediator1</title>
<path fill="none" stroke="black" d="M207.225,-197.518C182.805,-219.066 147.854,-249.907 128.822,-266.701"/>
</g>
<!-- mediator2 -->
<g id="node12" class="node"><title>mediator2</title>
<ellipse fill="#ff6a6a" stroke="#ff6a6a" cx="174.954" cy="-121.163" rx="18" ry="18"/>
<text text-anchor="middle" x="174.954" y="-118.997" font-family="Verdana" font-size="8.00">mediator2</text>
</g>
<!-- view&#45;&gt;mediator2 -->
<g id="edge14" class="edge"><title>view&#45;&gt;mediator2</title>
<path fill="none" stroke="black" d="M207.024,-149.575C200.571,-143.858 193.964,-138.005 188.436,-133.107"/>
</g>
<!-- window -->
<g id="node20" class="node"><title>window</title>
<polygon fill="lavender" stroke="lavender" points="360.16,-60.8537 288.16,-60.8537 288.16,-24.8537 360.16,-24.8537 360.16,-60.8537"/>
<text text-anchor="middle" x="324.16" y="-40.6873" font-family="Verdana" font-size="8.00">window</text>
</g>
<!-- view&#45;&gt;window -->
<g id="edge16" class="edge"><title>view&#45;&gt;window</title>
<path fill="none" stroke="black" d="M254.641,-143.996C272.156,-118.513 296.843,-82.5974 311.599,-61.1288"/>
</g>
<!-- gui1 -->
<g id="node17" class="node"><title>gui1</title>
<polygon fill="lavender" stroke="lavender" points="72,-296.721 0,-296.721 0,-260.721 72,-260.721 72,-296.721"/>
<text text-anchor="middle" x="36" y="-276.555" font-family="Verdana" font-size="8.00">gui1</text>
</g>
<!-- mediator1&#45;&gt;gui1 -->
<g id="edge18" class="edge"><title>mediator1&#45;&gt;gui1</title>
<path fill="none" stroke="black" d="M96.8309,-278.721C89.4281,-278.721 80.6199,-278.721 72.0368,-278.721"/>
</g>
<!-- gui2 -->
<g id="node18" class="node"><title>gui2</title>
<polygon fill="lavender" stroke="lavender" points="108.288,-149.497 36.2875,-149.497 36.2875,-113.497 108.288,-113.497 108.288,-149.497"/>
<text text-anchor="middle" x="72.2875" y="-129.331" font-family="Verdana" font-size="8.00">gui2</text>
</g>
<!-- mediator2&#45;&gt;gui2 -->
<g id="edge20" class="edge"><title>mediator2&#45;&gt;gui2</title>
<path fill="none" stroke="black" d="M156.599,-123.011C143.218,-124.358 124.653,-126.226 108.348,-127.867"/>
</g>
<!-- gui3 -->
<g id="node19" class="node"><title>gui3</title>
<polygon fill="lavender" stroke="lavender" points="208.837,-36 136.837,-36 136.837,-0 208.837,-0 208.837,-36"/>
<text text-anchor="middle" x="172.837" y="-15.8336" font-family="Verdana" font-size="8.00">gui3</text>
</g>
<!-- mediator2&#45;&gt;gui3 -->
<g id="edge22" class="edge"><title>mediator2&#45;&gt;gui3</title>
<path fill="none" stroke="black" d="M174.575,-102.72C174.19,-83.9421 173.596,-55.0037 173.212,-36.2839"/>
</g>
</g>
</svg>
