<?xml version="1.0" encoding="UTF-8" standalone="no"?>
<!DOCTYPE svg PUBLIC "-//W3C//DTD SVG 1.1//EN"
 "http://www.w3.org/Graphics/SVG/1.1/DTD/svg11.dtd">
<!-- Generated by graphviz version 2.28.0 (20120118.1605)
 -->
<!-- Title: MVC Pages: 1 -->
<svg width="557pt" height="500pt"
 viewBox="0.00 0.00 556.65 500.26" xmlns="http://www.w3.org/2000/svg" xmlns:xlink="http://www.w3.org/1999/xlink">
<g id="graph1" class="graph" transform="scale(1 1) rotate(0) translate(4 496.262)">
<title>MVC</title>
<!-- model -->
<g id="node3" class="node"><title>model</title>
<ellipse fill="lightskyblue" stroke="lightskyblue" cx="352.8" cy="-278.721" rx="36" ry="36"/>
<text text-anchor="middle" x="352.8" y="-276.555" font-family="Verdana" font-size="8.00">model</text>
</g>
<!-- facade&#45;&gt;model -->
<g id="edge6" class="edge"><title>facade&#45;&gt;model</title>
<path fill="none" stroke="white" d="M317.131,-227.046C321.507,-233.385 326.909,-241.212 332.174,-248.839"/>
</g>
<!-- service1 -->
<g id="node2" class="node"><title>service1</title>
<polygon fill="none" stroke="white" points="506.597,-334.629 465.171,-316.629 506.597,-298.629 548.023,-316.629 506.597,-334.629"/>
<text text-anchor="middle" x="506.597" y="-314.462" font-family="Verdana" font-size="8.00">service1</text>
</g>
<!-- proxy1 -->
<g id="node4" class="node"><title>proxy1</title>
<ellipse fill="lightskyblue" stroke="lightskyblue" cx="422.928" cy="-315.527" rx="18" ry="18"/>
<text text-anchor="middle" x="422.928" y="-313.361" font-family="Verdana" font-size="8.00">proxy1</text>
</g>
<!-- model&#45;&gt;proxy1 -->
<g id="edge32" class="edge"><title>model&#45;&gt;proxy1</title>
<path fill="none" stroke="white" d="M384.991,-295.616C392.624,-299.623 400.44,-303.725 406.979,-307.157"/>
</g>
<!-- proxy2 -->
<g id="node5" class="node"><title>proxy2</title>
<ellipse fill="lightskyblue" stroke="lightskyblue" cx="380.885" cy="-352.775" rx="18" ry="18"/>
<text text-anchor="middle" x="380.885" y="-350.608" font-family="Verdana" font-size="8.00">proxy2</text>
</g>
<!-- model&#45;&gt;proxy2 -->
<g id="edge34" class="edge"><title>model&#45;&gt;proxy2</title>
<path fill="none" stroke="white" d="M365.692,-312.714C368.749,-320.774 371.879,-329.028 374.498,-335.933"/>
</g>
<!-- proxy3 -->
<g id="node6" class="node"><title>proxy3</title>
<ellipse fill="lightskyblue" stroke="lightskyblue" cx="343.253" cy="-357.344" rx="18" ry="18"/>
<text text-anchor="middle" x="343.253" y="-355.177" font-family="Verdana" font-size="8.00">proxy3</text>
</g>
<!-- model&#45;&gt;proxy3 -->
<g id="edge36" class="edge"><title>model&#45;&gt;proxy3</title>
<path fill="none" stroke="white" d="M348.418,-314.811C347.379,-323.369 346.315,-332.132 345.425,-339.463"/>
</g>
<!-- proxy1&#45;&gt;service1 -->
<g id="edge44" class="edge"><title>proxy1&#45;&gt;service1</title>
<path fill="none" stroke="white" d="M441.083,-315.766C448.388,-315.863 457.13,-315.978 465.812,-316.092"/>
</g>
<!-- vo1 -->
<g id="node40" class="node"><title>vo1</title>
<polygon fill="lavender" stroke="lavender" points="507.364,-401.76 435.364,-401.76 435.364,-365.76 507.364,-365.76 507.364,-401.76"/>
<text text-anchor="middle" x="471.364" y="-381.594" font-family="Verdana" font-size="8.00">vo1</text>
</g>
<!-- proxy1&#45;&gt;vo1 -->
<g id="edge38" class="edge"><title>proxy1&#45;&gt;vo1</title>
<path fill="none" stroke="white" d="M433.438,-330.333C440.783,-340.68 450.637,-354.562 458.46,-365.581"/>
</g>
<!-- vo2 -->
<g id="node44" class="node"><title>vo2</title>
<polygon fill="lavender" stroke="lavender" points="444.969,-444.828 372.969,-444.828 372.969,-408.828 444.969,-408.828 444.969,-444.828"/>
<text text-anchor="middle" x="408.969" y="-424.661" font-family="Verdana" font-size="8.00">vo2</text>
</g>
<!-- proxy2&#45;&gt;vo2 -->
<g id="edge42" class="edge"><title>proxy2&#45;&gt;vo2</title>
<path fill="none" stroke="white" d="M387.398,-369.95C391.806,-381.572 397.618,-396.898 402.099,-408.712"/>
</g>
<!-- vo3 -->
<g id="node42" class="node"><title>vo3</title>
<polygon fill="lavender" stroke="lavender" points="369.707,-453.966 297.707,-453.966 297.707,-417.966 369.707,-417.966 369.707,-453.966"/>
<text text-anchor="middle" x="333.707" y="-433.8" font-family="Verdana" font-size="8.00">vo3</text>
</g>
<!-- proxy3&#45;&gt;vo3 -->
<g id="edge40" class="edge"><title>proxy3&#45;&gt;vo3</title>
<path fill="none" stroke="white" d="M341.039,-375.579C339.497,-388.281 337.449,-405.15 335.909,-417.83"/>
</g>
</g>
</svg>
